<?xml version="1.0" standalone="no"?>
<!DOCTYPE svg PUBLIC "-//W3C//DTD SVG 1.1//EN" "http://www.w3.org/Graphics/SVG/1.1/DTD/svg11.dtd" >
<svg xmlns="http://www.w3.org/2000/svg" xmlns:xlink="http://www.w3.org/1999/xlink" version="1.1">
<metadata>
Created by FontForge 20150318 at Wed Sep 23 22:07:21 2015
 By uniteet7
copyright missing
</metadata>
<defs>
<font id="VegurLight" horiz-adv-x="456" >
  <font-face 
    font-family="VegurLight"
    font-weight="300"
    font-stretch="normal"
    units-per-em="1000"
    panose-1="0 0 4 0 0 0 0 0 0 0"
    ascent="765"
    descent="-235"
    x-height="470"
    cap-height="688"
    bbox="-55 -235 944 878"
    underline-thickness="50"
    underline-position="-50"
    unicode-range="U+0020-FB02"
  />
<missing-glyph horiz-adv-x="500" 
d="M0 0v700h500v-700h-500zM250 395l170 255h-340zM280 350l170 -255v510zM80 50h340l-170 255zM50 605v-510l170 255z" />
    <glyph glyph-name="fi" unicode="fi" horiz-adv-x="470" 
d="M386 470v-470h-34v442h-214v-442h-34v442h-67v28h67v37q0 63 18.5 111t49 74.5t65 39.5t71.5 13q48 0 70 -15l-3 -30q-24 14 -69 14q-66 0 -117 -50t-51 -148v-46h248z" />
    <glyph glyph-name="fl" unicode="fl" horiz-adv-x="470" 
d="M352 0v709q-23 5 -45 5q-67 0 -118 -47.5t-51 -142.5v-54h121v-28h-121v-442h-34v442h-67v28h67v43q0 62 19 109t50 72.5t66 38t73 12.5q43 0 74 -11v-734h-34z" />
    <glyph glyph-name=".notdef" horiz-adv-x="500" 
d="M0 0v700h500v-700h-500zM250 395l170 255h-340zM280 350l170 -255v510zM80 50h340l-170 255zM50 605v-510l170 255z" />
    <glyph glyph-name=".null" horiz-adv-x="0" 
 />
    <glyph glyph-name="nonmarkingreturn" horiz-adv-x="333" 
 />
    <glyph glyph-name="space" unicode=" " horiz-adv-x="234" 
 />
    <glyph glyph-name="exclam" unicode="!" horiz-adv-x="222" 
d="M124 130h-26l-8 558h42zM111 60q13 0 23 -10t10 -23t-10 -23t-23 -10t-23 10t-10 23t10 23t23 10z" />
    <glyph glyph-name="quotedbl" unicode="&#x22;" horiz-adv-x="267" 
d="M99 467h-22l-4 268h37zM179 467h-22l-4 268h37z" />
    <glyph glyph-name="numbersign" unicode="#" 
d="M329 408l-33 -154h97v-28h-103l-53 -246h-29l53 246h-104l-53 -246h-29l53 246h-88v28h94l33 154h-92v28h98l53 246h29l-53 -246h104l53 246h29l-53 -246h93v-28h-99zM267 254l33 154h-104l-33 -154h104z" />
    <glyph glyph-name="dollar" unicode="$" 
d="M376 597l-5 -33q-57 39 -129 39q-47 0 -83.5 -32t-36.5 -76q0 -49 28 -80.5t89 -60.5q79 -37 113.5 -73.5t34.5 -89.5q0 -67 -42 -109.5t-101 -50.5v-77h-30v76q-82 2 -142 39l3 32q66 -42 150 -42q55 0 91.5 36.5t36.5 87.5q0 49 -27 78t-98 62q-72 33 -106 71.5
t-34 91.5q0 62 41.5 100.5t94.5 44.5v77h30v-76q76 -3 122 -35z" />
    <glyph glyph-name="percent" unicode="%" horiz-adv-x="742" 
d="M206 -20h-34l384 702h34zM195 672q58 0 92 -49t34 -127q0 -77 -34 -126.5t-92 -49.5t-92 49.5t-34 126.5q0 78 34 127t92 49zM195 644q-42 0 -68 -38.5t-26 -109.5t26 -109.5t68 -38.5q43 0 68.5 38.5t25.5 109.5t-26 109.5t-68 38.5zM547 342q58 0 92 -49t34 -127
q0 -77 -34 -126.5t-92 -49.5t-92 49.5t-34 126.5q0 78 34 127t92 49zM547 314q-42 0 -68 -38.5t-26 -109.5t26 -109.5t68 -38.5q43 0 68.5 38.5t25.5 109.5t-26 109.5t-68 38.5z" />
    <glyph glyph-name="ampersand" unicode="&#x26;" horiz-adv-x="581" 
d="M502 -1l-67 80q-86 -89 -208 -89q-76 0 -130.5 46.5t-54.5 116.5q0 120 153 216q-43 54 -61 91.5t-18 78.5q0 68 46.5 113.5t108.5 45.5q60 0 97 -40t37 -92q0 -55 -39 -103t-125 -101l196 -235q63 87 69 209h30q-5 -135 -80 -232l88 -105h-42zM268 667q-46 0 -82 -35.5
t-36 -87.5q0 -41 14.5 -73t57.5 -85q149 88 149 174q0 52 -27.5 79.5t-75.5 27.5zM416 102l-202 244q-138 -91 -138 -184q0 -63 45 -102t109 -39q111 0 186 81z" />
    <glyph glyph-name="quotesingle" unicode="'" horiz-adv-x="187" 
d="M99 467h-22l-4 268h37z" />
    <glyph glyph-name="parenleft" unicode="(" horiz-adv-x="355" 
d="M242 759l17 -13q-62 -87 -95 -185.5t-33 -234.5t33 -234.5t95 -185.5l-17 -13q-66 69 -105.5 185t-39.5 248t39.5 248t105.5 185z" />
    <glyph glyph-name="parenright" unicode=")" horiz-adv-x="355" 
d="M96 746l17 13q66 -69 105.5 -185t39.5 -248t-39.5 -248t-105.5 -185l-17 13q62 87 95 185.5t33 234.5t-33 234.5t-95 185.5z" />
    <glyph glyph-name="asterisk" unicode="*" horiz-adv-x="348" 
d="M184 501l146 53l10 -31l-150 -42l97 -122l-27 -19l-86 128l-86 -128l-27 19l97 122l-150 42l10 31l146 -53l-6 154h32z" />
    <glyph glyph-name="plus" unicode="+" horiz-adv-x="562" 
d="M296 284h207v-28h-207v-226h-30v226h-207v28h207v226h30v-226z" />
    <glyph glyph-name="comma" unicode="," horiz-adv-x="193" 
d="M2 -142l-29 -5l95 250l41 2z" />
    <glyph glyph-name="hyphen" unicode="-" horiz-adv-x="348" 
d="M292 256h-236v28h236v-28z" />
    <glyph glyph-name="period" unicode="." horiz-adv-x="193" 
d="M88 60q14 0 23.5 -10t9.5 -23t-9.5 -23t-23.5 -10t-23.5 10t-9.5 23t9.5 23t23.5 10z" />
    <glyph glyph-name="slash" unicode="/" horiz-adv-x="385" 
d="M37 -97h-32l342 846h33z" />
    <glyph glyph-name="zero" unicode="0" 
d="M228 672q86 0 134 -86t48 -255t-48 -255t-134 -86t-134 86t-48 255t48 255t134 86zM228 640q-69 0 -107.5 -79t-38.5 -230t38.5 -230t107.5 -79t107.5 79t38.5 230t-38.5 230t-107.5 79z" />
    <glyph glyph-name="one" unicode="1" 
d="M314 0h-34v612l-176 -104l-2 35l195 119h17v-662z" />
    <glyph glyph-name="two" unicode="2" 
d="M93 577l-3 38q27 27 67 42t78 15q77 0 122 -41.5t45 -113.5q0 -55 -38.5 -123t-138.5 -193l-135 -169h317v-32h-364v23l160 203q91 115 127 177t36 110q0 62 -35.5 94.5t-97.5 32.5q-36 0 -75 -17t-65 -46z" />
    <glyph glyph-name="three" unicode="3" 
d="M91 589l-2 36q58 47 139 47q78 0 123 -43t45 -109q0 -65 -48.5 -114.5t-116.5 -62.5q77 -9 122.5 -56t45.5 -118q0 -76 -58.5 -127.5t-144.5 -51.5t-140 41l3 36q65 -45 141 -45q68 0 115.5 41t47.5 103q0 72 -51.5 114t-152.5 42v32q83 3 142 47.5t59 110.5
q0 59 -35.5 93.5t-106.5 34.5q-67 0 -127 -51z" />
    <glyph glyph-name="four" unicode="4" 
d="M337 223h88v-32h-88v-190h-34v190h-262v24l254 447h42v-439zM84 223h219v174q0 150 4 230z" />
    <glyph glyph-name="five" unicode="5" 
d="M379 626h-243l-14 -246h33q112 0 174 -51t62 -145q0 -80 -60.5 -137t-146.5 -57q-76 0 -129 37l4 36q56 -41 129 -41q65 0 116 44.5t51 109.5q0 172 -208 172h-59l18 310h273v-32z" />
    <glyph glyph-name="six" unicode="6" 
d="M374 672l2 -31q-131 -14 -210 -124.5t-81 -254.5q20 45 61.5 73.5t98.5 28.5q73 0 118.5 -54t45.5 -131q0 -81 -53 -135t-129 -54q-83 0 -131 70.5t-48 175.5q0 182 93.5 303t232.5 133zM236 331q-60 0 -103 -41.5t-43 -88.5q0 -71 39 -125t104 -54q57 0 97 43t40 108
q0 67 -35 112.5t-99 45.5z" />
    <glyph glyph-name="seven" unicode="7" 
d="M423 633l-288 -633h-37l285 626h-325v32h365v-25z" />
    <glyph glyph-name="eight" unicode="8" 
d="M241 672q75 0 120 -44t45 -114q0 -104 -133 -175q135 -68 135 -182q0 -74 -51 -120.5t-126 -46.5t-125 44.5t-50 114.5q0 60 42 111t102 77q-125 64 -125 169q0 71 49 118.5t117 47.5zM239 640q-50 0 -89 -36t-39 -87q0 -106 125 -164q53 20 93.5 64t40.5 91
q0 63 -34.5 97.5t-96.5 34.5zM234 323q-62 -27 -102 -70t-40 -95q0 -61 39.5 -98.5t99.5 -37.5q62 0 101.5 38.5t39.5 91.5q0 106 -138 171z" />
    <glyph glyph-name="nine" unicode="9" 
d="M84 -10l-2 31q131 14 210 124.5t81 254.5q-20 -45 -61.5 -73.5t-98.5 -28.5q-73 0 -118.5 54t-45.5 131q0 81 53 135t129 54q83 0 131 -70.5t48 -175.5q0 -182 -93.5 -303t-232.5 -133zM225 640q-57 0 -97 -43t-40 -108q0 -67 35 -112.5t99 -45.5q60 0 103 41.5t43 88.5
q0 71 -39 125t-104 54z" />
    <glyph glyph-name="colon" unicode=":" horiz-adv-x="193" 
d="M88 488q14 0 23.5 -10t9.5 -23t-9.5 -23t-23.5 -10t-23.5 10t-9.5 23t9.5 23t23.5 10zM88 60q14 0 23.5 -10t9.5 -23t-9.5 -23t-23.5 -10t-23.5 10t-9.5 23t9.5 23t23.5 10z" />
    <glyph glyph-name="semicolon" unicode=";" horiz-adv-x="193" 
d="M88 488q14 0 23.5 -10t9.5 -23t-9.5 -23t-23.5 -10t-23.5 10t-9.5 23t9.5 23t23.5 10zM2 -142l-29 -5l95 250l41 2z" />
    <glyph glyph-name="less" unicode="&#x3c;" horiz-adv-x="568" 
d="M487 434l-362 -184l362 -185v-35l-401 208v26l401 207v-37z" />
    <glyph glyph-name="equal" unicode="=" horiz-adv-x="598" 
d="M532 357h-466v28h466v-28zM532 155h-466v28h466v-28z" />
    <glyph glyph-name="greater" unicode="&#x3e;" horiz-adv-x="568" 
d="M482 263v-26l-401 -207v37l362 184l-362 185v35z" />
    <glyph glyph-name="question" unicode="?" horiz-adv-x="374" 
d="M26 619l-4 34q57 45 143 45q66 0 115.5 -37t49.5 -105q0 -43 -25 -93.5t-92 -148.5q-57 -83 -60 -184h-32q3 109 66 203q64 95 85.5 140t21.5 81q0 55 -38.5 83.5t-96.5 28.5q-75 0 -133 -47zM139 60q13 0 23 -10t10 -23t-10 -23t-23 -10t-23 10t-10 23t10 23t23 10z" />
    <glyph glyph-name="at" unicode="@" horiz-adv-x="861" 
d="M622 -52l3 -30q-105 -54 -225 -54q-139 0 -235.5 90.5t-96.5 240.5q0 121 59 217t151.5 146.5t196.5 50.5q93 0 167 -48t111 -121t37 -154q0 -103 -51.5 -169t-130.5 -66q-38 0 -63.5 25.5t-29.5 66.5q-19 -43 -58.5 -70.5t-87.5 -27.5q-45 0 -77.5 36.5t-32.5 101.5
q0 108 65.5 178.5t163.5 70.5q53 0 97 -17l-38 -240q-7 -44 13 -71t58 -27q52 0 96 53.5t44 147.5q0 130 -79.5 216.5t-216.5 86.5q-64 0 -129 -28t-117 -76t-85 -120t-33 -152q0 -78 26.5 -139.5t71.5 -98.5t100 -56t115 -19q110 0 211 56zM525 242l25 150q-28 9 -66 9
q-72 0 -131.5 -58t-59.5 -153q0 -51 24 -82.5t66 -31.5q48 0 88 40.5t54 125.5z" />
    <glyph glyph-name="A" unicode="A" horiz-adv-x="554" 
d="M413 247h-273l-83 -247h-35l234 688h44l232 -688h-36zM403 279l-126 375l-126 -375h252z" />
    <glyph glyph-name="B" unicode="B" horiz-adv-x="492" 
d="M88 0v687q58 11 102 11q119 0 180.5 -47t61.5 -126q0 -74 -53 -121t-124 -56q82 -9 131.5 -55.5t49.5 -115.5q0 -87 -69 -137t-183 -50q-50 0 -96 10zM122 356h45q89 0 158.5 43t69.5 118q0 149 -203 149q-31 0 -70 -6v-304zM122 324v-296q39 -6 76 -6q85 0 142.5 40.5
t57.5 106.5q0 75 -56 115t-163 40h-57z" />
    <glyph glyph-name="C" unicode="C" horiz-adv-x="595" 
d="M544 65l3 -33q-77 -42 -180 -42q-129 0 -217.5 93.5t-88.5 255.5q0 158 94.5 258.5t229.5 100.5q111 0 171 -42l-4 -33q-74 43 -166 43q-119 0 -204 -89.5t-85 -229.5q0 -156 81.5 -240.5t199.5 -84.5q87 0 166 43z" />
    <glyph glyph-name="D" unicode="D" horiz-adv-x="646" 
d="M88 1v684q64 13 137 13q88 0 158 -27.5t113.5 -74.5t66 -107.5t22.5 -129.5q0 -171 -107.5 -270t-273.5 -99q-57 0 -116 11zM122 657v-629q46 -6 88 -6q143 0 241 91.5t98 232.5q0 148 -87 234t-240 86q-58 0 -100 -9z" />
    <glyph glyph-name="E" unicode="E" horiz-adv-x="442" 
d="M392 652h-270v-289h238v-32h-238v-299h274v-32h-308v684h304v-32z" />
    <glyph glyph-name="F" unicode="F" horiz-adv-x="413" 
d="M392 652h-270v-323h238v-32h-238v-297h-34v684h304v-32z" />
    <glyph glyph-name="G" unicode="G" horiz-adv-x="614" 
d="M552 311v-286q-78 -35 -173 -35q-145 0 -231.5 93.5t-86.5 255.5q0 161 94.5 260t228.5 99q115 0 172 -40l-4 -35q-69 43 -165 43q-118 0 -204 -88.5t-86 -230.5q0 -89 25 -154.5t68 -101.5t92 -52.5t106 -16.5q75 0 130 23v234h-147v32h181z" />
    <glyph glyph-name="H" unicode="H" horiz-adv-x="612" 
d="M528 0h-34v331h-372v-331h-34v688h34v-325h372v325h34v-688z" />
    <glyph glyph-name="I" unicode="I" horiz-adv-x="206" 
d="M122 0h-34v688h34v-688z" />
    <glyph glyph-name="J" unicode="J" horiz-adv-x="238" 
d="M158 688v-543q0 -151 -40 -233.5t-149 -125.5l-13 28q96 41 132 111t36 218v545h34z" />
    <glyph glyph-name="K" unicode="K" horiz-adv-x="509" 
d="M207 349l292 -349h-44l-273 327l-60 -67v-260h-34v688h34v-386l344 386h44z" />
    <glyph glyph-name="L" unicode="L" horiz-adv-x="431" 
d="M122 32h277v-32h-311v688h34v-656z" />
    <glyph glyph-name="M" unicode="M" horiz-adv-x="782" 
d="M147 688l190 -501q30 -79 53 -149q27 79 54 149l192 501h55l11 -688h-36l-7 478q-1 84 0 182q-18 -49 -68 -182l-181 -470h-45l-176 470q-39 101 -68 190q3 -97 1 -190l-6 -478h-34l11 688h54z" />
    <glyph glyph-name="N" unicode="N" horiz-adv-x="604" 
d="M524 0h-39l-297 504q-42 72 -76 141q3 -60 3 -147v-498h-33v688h39l290 -495q45 -78 83 -152q-3 90 -3 157v490h33v-688z" />
    <glyph glyph-name="O" unicode="O" horiz-adv-x="712" 
d="M356 698q129 0 212 -98t83 -256t-83 -256t-212 -98t-212 98t-83 256t83 256t212 98zM356 666q-114 0 -186.5 -90t-72.5 -232t72.5 -232t186.5 -90t186.5 90t72.5 232t-72.5 232t-186.5 90z" />
    <glyph glyph-name="P" unicode="P" horiz-adv-x="457" 
d="M88 0v686q52 12 108 12q120 0 180.5 -52t60.5 -136q0 -97 -75.5 -153.5t-182.5 -56.5q-30 0 -57 3v-303h-34zM122 659v-324q26 -4 45 -4q105 0 168.5 48.5t63.5 125.5q0 161 -201 161q-35 0 -76 -7z" />
    <glyph glyph-name="Q" unicode="Q" horiz-adv-x="712" 
d="M520 -204l-164 194q-129 0 -212 98t-83 256t83 256t212 98t212 -98t83 -256q0 -144 -70.5 -238t-183.5 -111l-3 -1l155 -178zM97 344q0 -142 73 -232.5t186 -90.5t186 90.5t73 232.5t-72.5 232t-186.5 90t-186.5 -90t-72.5 -232z" />
    <glyph glyph-name="R" unicode="R" horiz-adv-x="485" 
d="M88 0v686q52 12 108 12q121 0 183 -50.5t62 -135.5q0 -75 -55 -126.5t-130 -62.5q58 -7 89.5 -40t45.5 -94q24 -104 51 -189h-39q-29 103 -44 173q-16 69 -53 99.5t-132 30.5h-52v-303h-34zM122 334h43q99 0 168.5 47t69.5 129q0 156 -205 156q-35 0 -76 -7v-325z" />
    <glyph glyph-name="S" unicode="S" horiz-adv-x="455" 
d="M45 22l6 33q66 -33 134 -33q73 0 121 43t48 108q0 55 -32 91t-104 62q-152 55 -152 185q0 85 54 136t133 51q75 0 125 -32l-6 -34q-49 34 -120 34q-64 0 -107 -41.5t-43 -106.5q0 -60 31.5 -97.5t102.5 -64.5q78 -30 117 -71t39 -108q0 -79 -59.5 -133t-150.5 -54
q-73 0 -137 32z" />
    <glyph glyph-name="T" unicode="T" horiz-adv-x="458" 
d="M449 652h-202v-652h-34v652h-202v32h438v-32z" />
    <glyph glyph-name="U" unicode="U" horiz-adv-x="614" 
d="M538 688v-455q0 -118 -60.5 -182.5t-171.5 -64.5q-107 0 -167.5 64.5t-60.5 172.5v465h34v-453q0 -106 51 -161.5t149 -55.5q86 0 139 51t53 156v463h34z" />
    <glyph glyph-name="V" unicode="V" horiz-adv-x="549" 
d="M301 0h-45l-236 688h35l224 -652l223 652h35z" />
    <glyph glyph-name="W" unicode="W" horiz-adv-x="796" 
d="M55 688l129 -488q18 -69 41 -168q3 15 37 168l117 478h46l115 -478q26 -108 39 -168q5 21 43 168l127 488h35l-184 -688h-43l-116 478q-26 108 -39 168q-4 -18 -40 -168l-115 -478h-43l-184 688h35z" />
    <glyph glyph-name="X" unicode="X" horiz-adv-x="472" 
d="M263 349l190 -349h-41l-170 319l-178 -319h-38l196 347l-182 341h39l164 -313l178 313h40z" />
    <glyph glyph-name="Y" unicode="Y" horiz-adv-x="462" 
d="M259 307v-307h-34v307l-207 381h41l184 -347l183 347h40z" />
    <glyph glyph-name="Z" unicode="Z" horiz-adv-x="486" 
d="M449 656l-367 -624h369v-32h-412v25l367 627h-338v32h381v-28z" />
    <glyph glyph-name="bracketleft" unicode="[" horiz-adv-x="359" 
d="M259 721h-116v-790h116v-28h-146v846h146v-28z" />
    <glyph glyph-name="backslash" unicode="\" horiz-adv-x="385" 
d="M380 -97h-32l-343 846h33z" />
    <glyph glyph-name="bracketright" unicode="]" horiz-adv-x="359" 
d="M246 -97h-146v28h116v790h-116v28h146v-846z" />
    <glyph glyph-name="asciicircum" unicode="^" horiz-adv-x="412" 
d="M372 225h-37l-127 286l-132 -286h-36l152 316h32z" />
    <glyph glyph-name="underscore" unicode="_" horiz-adv-x="500" 
d="M500 -66h-500v28h500v-28z" />
    <glyph glyph-name="grave" unicode="`" horiz-adv-x="500" 
d="M192 653l85 -117l-31 2l-98 118z" />
    <glyph glyph-name="a" unicode="a" horiz-adv-x="449" 
d="M99 417l-2 33q55 34 127 34q65 0 105 -36.5t40 -103.5v-344h-29l-4 95q-20 -52 -61 -78.5t-89 -26.5q-52 0 -89.5 35.5t-37.5 94.5q0 78 59 120t143 42q42 0 74 -7v63q0 59 -32.5 87t-88.5 28q-55 0 -115 -36zM335 195v50q-35 6 -77 6q-72 0 -117.5 -36.5t-45.5 -88.5
q0 -48 29.5 -76.5t74.5 -28.5q54 0 95 46.5t41 127.5z" />
    <glyph glyph-name="b" unicode="b" horiz-adv-x="523" 
d="M118 735v-368q17 49 61 83t100 34q88 0 139.5 -68t51.5 -174q0 -117 -60 -184.5t-142 -67.5q-49 0 -92 30.5t-59 83.5l-4 -104h-29v735h34zM118 280v-89q0 -71 44 -120.5t103 -49.5q66 0 117.5 55.5t51.5 161.5q0 89 -40.5 152t-122.5 63q-62 0 -107.5 -54t-45.5 -119z
" />
    <glyph glyph-name="c" unicode="c" horiz-adv-x="412" 
d="M375 44l2 -32q-45 -22 -116 -22q-87 0 -147.5 62t-60.5 181q0 121 63 186t159 65q60 0 106 -22l-4 -33q-48 24 -99 24q-79 0 -134 -55.5t-55 -158.5q0 -112 52 -165t134 -53q52 0 100 23z" />
    <glyph glyph-name="d" unicode="d" horiz-adv-x="523" 
d="M439 735v-735h-29l-4 110q-16 -50 -61 -85t-101 -35q-88 0 -139.5 68t-51.5 174q0 117 60 184.5t142 67.5q48 0 90.5 -29t59.5 -81v361h34zM405 194v89q0 71 -44 120.5t-103 49.5q-66 0 -117.5 -55.5t-51.5 -161.5q0 -89 40.5 -152t122.5 -63q62 0 107.5 54t45.5 119z
" />
    <glyph glyph-name="e" unicode="e" horiz-adv-x="451" 
d="M368 54l2 -32q-52 -32 -138 -32q-82 0 -133 62t-51 174q0 115 53.5 186.5t131.5 71.5q82 0 123.5 -62.5t41.5 -151.5q0 -22 -3 -40h-311q0 -102 42 -155.5t120 -53.5q65 0 122 33zM85 260h279q0 95 -35.5 143.5t-96.5 48.5q-58 0 -100 -52.5t-47 -139.5z" />
    <glyph glyph-name="f" unicode="f" horiz-adv-x="268" 
d="M104 470v68q0 99 46.5 153t118.5 54q33 0 56 -10l-3 -31q-24 10 -58 10q-56 0 -91 -45t-35 -120v-79h121v-29h-121v-441h-34v441h-67v29h67z" />
    <glyph glyph-name="g" unicode="g" horiz-adv-x="523" 
d="M438 474v-447q0 -111 -56 -176.5t-156 -65.5q-87 0 -136 39l4 34q65 -43 138 -43q80 0 126 56t46 151v82q-18 -48 -61.5 -81t-98.5 -33q-88 0 -139.5 68t-51.5 174q0 117 60 184.5t142 67.5q49 0 92 -30.5t59 -83.5l4 104h28zM405 179v113q-4 68 -47.5 114.5t-99.5 46.5
q-66 0 -117.5 -55.5t-51.5 -161.5q0 -89 40.5 -152t122.5 -63q58 0 102.5 48t50.5 110z" />
    <glyph glyph-name="h" unicode="h" horiz-adv-x="499" 
d="M118 735v-361q15 47 56 78.5t91 31.5q73 0 113.5 -46t40.5 -118v-320h-34v306q0 68 -32.5 107t-91.5 39q-60 0 -101.5 -54t-41.5 -116v-282h-34v735h34z" />
    <glyph glyph-name="i" unicode="i" horiz-adv-x="202" 
d="M101 629q11 0 19 -8t8 -19t-8 -19t-19 -8t-19 8t-8 19t8 19t19 8zM84 0v474h34v-474h-34z" />
    <glyph glyph-name="j" unicode="j" horiz-adv-x="217" 
d="M116 629q11 0 19 -8t8 -19t-8 -19t-19 -8t-19 8t-8 19t8 19t19 8zM133 474v-332q0 -140 -41 -220t-128 -137l-19 27q80 50 117 123t37 198v341h34z" />
    <glyph glyph-name="k" unicode="k" horiz-adv-x="414" 
d="M399 0h-51l-204 216l-26 -27v-189h-34v735h34v-510l235 251h43l-225 -238z" />
    <glyph glyph-name="l" unicode="l" horiz-adv-x="202" 
d="M118 0h-34v735h34v-735z" />
    <glyph glyph-name="m" unicode="m" horiz-adv-x="760" 
d="M113 474l4 -100q17 51 54 80.5t83 29.5q56 0 92 -31.5t48 -82.5q18 51 56.5 82.5t84.5 31.5q68 0 106.5 -46t38.5 -112v-326h-34v312q0 63 -30 101t-85 38q-53 0 -92.5 -52t-39.5 -114v-285h-34v312q0 63 -30 101t-85 38q-53 0 -92.5 -52t-39.5 -114v-285h-34v474h29z
" />
    <glyph glyph-name="n" unicode="n" horiz-adv-x="499" 
d="M113 474l5 -102q15 48 55.5 80t91.5 32q73 0 113.5 -46t40.5 -118v-320h-34v306q0 68 -32.5 107t-91.5 39q-60 0 -101.5 -54t-41.5 -116v-282h-34v474h29z" />
    <glyph glyph-name="o" unicode="o" horiz-adv-x="494" 
d="M247 484q91 0 144 -70t53 -177t-53 -177t-144 -70t-144 70t-53 177t53 177t144 70zM247 453q-70 0 -115.5 -57.5t-45.5 -158.5t45.5 -158.5t115.5 -57.5t115.5 57.5t45.5 158.5t-45.5 158.5t-115.5 57.5z" />
    <glyph glyph-name="p" unicode="p" horiz-adv-x="523" 
d="M113 474l4 -110q16 50 61 85t101 35q88 0 139.5 -68t51.5 -174q0 -117 -60 -184.5t-142 -67.5q-48 0 -90.5 29t-59.5 81v-305h-34v679h29zM118 280v-89q0 -71 44 -120.5t103 -49.5q66 0 117.5 55.5t51.5 161.5q0 89 -40.5 152t-122.5 63q-62 0 -107.5 -54t-45.5 -119z
" />
    <glyph glyph-name="q" unicode="q" horiz-adv-x="523" 
d="M439 474v-679h-34v312q-17 -49 -61 -83t-100 -34q-88 0 -139.5 68t-51.5 174q0 117 60 184.5t142 67.5q49 0 92 -30.5t59 -83.5l4 104h29zM405 194v89q0 71 -44 120.5t-103 49.5q-66 0 -117.5 -55.5t-51.5 -161.5q0 -89 40.5 -152t122.5 -63q62 0 107.5 54t45.5 119z" />
    <glyph glyph-name="r" unicode="r" horiz-adv-x="269" 
d="M113 474l4 -94q8 45 38.5 74.5t68.5 29.5q18 0 25 -4l-4 -32q-9 4 -27 4q-46 0 -73 -53t-27 -125v-274h-34v474h29z" />
    <glyph glyph-name="s" unicode="s" horiz-adv-x="351" 
d="M38 16l3 34q52 -29 108 -29q49 0 83 27.5t34 68.5q0 37 -23.5 59.5t-78.5 45.5q-53 22 -80.5 51t-27.5 79q0 60 40.5 96t100.5 36q58 0 95 -25l-3 -35q-42 29 -96 29q-42 0 -72 -27.5t-30 -68.5q0 -42 23 -64.5t77 -44.5q55 -23 83 -52.5t28 -71.5q0 -60 -44.5 -97
t-109.5 -37q-68 0 -110 26z" />
    <glyph glyph-name="t" unicode="t" horiz-adv-x="306" 
d="M152 470h119v-29h-119v-333q0 -44 19.5 -66t51.5 -22q31 0 52 12l2 -29q-21 -13 -60 -13q-44 0 -71.5 28t-27.5 85v338h-76v29h76v130h34v-130z" />
    <glyph glyph-name="u" unicode="u" horiz-adv-x="499" 
d="M415 474v-474h-29l-5 102q-15 -48 -55.5 -80t-91.5 -32q-73 0 -113.5 46t-40.5 118v320h34v-306q0 -68 32.5 -107t91.5 -39q60 0 101.5 54t41.5 116v282h34z" />
    <glyph glyph-name="v" unicode="v" horiz-adv-x="446" 
d="M242 0h-37l-177 474h40l156 -437l160 437h37z" />
    <glyph glyph-name="w" unicode="w" horiz-adv-x="650" 
d="M486 0h-44l-115 423l-116 -423h-43l-138 474h37l123 -444l120 440h37l118 -440l123 444h37z" />
    <glyph glyph-name="x" unicode="x" horiz-adv-x="394" 
d="M213 236l148 -236h-40l-129 211l-136 -211h-39l155 235l-147 239h39l130 -213l137 213h39z" />
    <glyph glyph-name="y" unicode="y" horiz-adv-x="418" 
d="M408 474l-179 -474q-35 -88 -77 -138.5t-104 -76.5l-14 29q56 22 98.5 74.5t58.5 112.5l-176 473h41l155 -439l159 439h38z" />
    <glyph glyph-name="z" unicode="z" horiz-adv-x="379" 
d="M337 442l-271 -413h271v-29h-310v27l271 414h-245v29h284v-28z" />
    <glyph glyph-name="braceleft" unicode="{" horiz-adv-x="397" 
d="M296 754v-28q-51 0 -72 -25t-16 -82l16 -196q3 -42 -9.5 -65.5t-45.5 -30.5q36 -8 47.5 -30.5t7.5 -67.5l-16 -194q-5 -57 16 -83t72 -26v-28q-73 0 -98.5 37t-17.5 131l14 156q4 49 -12.5 68t-59.5 19v34q43 0 58.5 19t11.5 68l-12 156q-8 94 17.5 131t98.5 37z" />
    <glyph glyph-name="bar" unicode="|" horiz-adv-x="330" 
d="M180 -235h-30v1000h30v-1000z" />
    <glyph glyph-name="braceright" unicode="}" horiz-adv-x="397" 
d="M101 726v28q73 0 98.5 -37t17.5 -131l-14 -156q-4 -49 12.5 -68t59.5 -19v-34q-43 0 -58.5 -19t-11.5 -68l12 -156q8 -94 -17.5 -131t-98.5 -37v28q51 0 72 25t16 82l-16 196q-3 42 9.5 65.5t45.5 30.5q-36 8 -47.5 30.5t-7.5 67.5l16 194q5 57 -16 83t-72 26z" />
    <glyph glyph-name="asciitilde" unicode="~" horiz-adv-x="562" 
d="M475 333h29q0 -57 -26.5 -90t-74.5 -33q-47 0 -131 46q-75 41 -112 41q-73 0 -73 -94h-29q0 57 26.5 90t74.5 33q49 0 131 -46q73 -41 112 -41q73 0 73 94z" />
    <glyph glyph-name="exclamdown" unicode="&#xa1;" horiz-adv-x="222" 
d="M111 422q-13 0 -23 10t-10 23t10 23t23 10t23 -10t10 -23t-10 -23t-23 -10zM124 352l8 -558h-42l8 558h26z" />
    <glyph glyph-name="sterling" unicode="&#xa3;" horiz-adv-x="489" 
d="M451 651l-3 -34q-41 23 -95 23q-58 0 -97 -46.5t-39 -116.5q0 -50 17 -142h169v-28h-162q8 -50 8 -81q0 -134 -115 -193h307v-32h-367v24q57 21 98 72.5t41 126.5q0 40 -7 83h-137v28h129q-17 94 -17 138q0 92 52.5 145.5t119.5 53.5q59 0 98 -21z" />
    <glyph glyph-name="yen" unicode="&#xa5;" horiz-adv-x="480" 
d="M276 366h117v-28h-137v-87h137v-28h-137v-223h-34v223h-137v28h137v87h-137v28h120l-155 289h41l149 -293l154 293h36z" />
    <glyph glyph-name="dieresis" unicode="&#xa8;" horiz-adv-x="500" 
d="M190 619q11 0 19 -8t8 -19t-8 -19t-19 -8t-19 8t-8 19t8 19t19 8zM310 619q11 0 19 -8t8 -19t-8 -19t-19 -8t-19 8t-8 19t8 19t19 8z" />
    <glyph glyph-name="guillemotleft" unicode="&#xab;" horiz-adv-x="430" 
d="M115 252l119 -169h-40l-119 169l119 169h40zM225 252l119 -169h-40l-119 169l119 169h40z" />
    <glyph glyph-name="acute" unicode="&#xb4;" horiz-adv-x="500" 
d="M210 537l-31 -2l85 117l44 3z" />
    <glyph glyph-name="cedilla" unicode="&#xb8;" horiz-adv-x="500" 
d="M277 7l-23 -40q31 -4 46.5 -20t15.5 -40q0 -33 -24.5 -50.5t-61.5 -17.5q-27 0 -53 13l5 24q25 -12 51 -12q22 0 35.5 11.5t13.5 28.5q0 22 -16 31.5t-57 9.5l37 62h31z" />
    <glyph glyph-name="guillemotright" unicode="&#xbb;" horiz-adv-x="430" 
d="M245 252l-119 -169h-40l119 169l-119 169h40zM355 252l-119 -169h-40l119 169l-119 169h40z" />
    <glyph glyph-name="questiondown" unicode="&#xbf;" horiz-adv-x="374" 
d="M235 422q-13 0 -23 10t-10 23t10 23t23 10t23 -10t10 -23t-10 -23t-23 -10zM348 -137l4 -34q-57 -45 -143 -45q-66 0 -115.5 37t-49.5 105q0 43 25 93.5t92 148.5q57 83 60 184h32q-3 -109 -66 -203q-64 -95 -85.5 -140t-21.5 -81q0 -55 38.5 -83.5t96.5 -28.5
q75 0 133 47z" />
    <glyph glyph-name="Agrave" unicode="&#xc0;" horiz-adv-x="554" 
d="M220 855l85 -117l-31 2l-98 118zM140 247l-83 -247h-35l234 688h44l232 -688h-36l-83 247h-273zM277 654l-126 -375h252z" />
    <glyph glyph-name="Aacute" unicode="&#xc1;" horiz-adv-x="554" 
d="M288 739l-31 -2l85 117l44 3zM140 247l-83 -247h-35l234 688h44l232 -688h-36l-83 247h-273zM277 654l-126 -375h252z" />
    <glyph glyph-name="Acircumflex" unicode="&#xc2;" horiz-adv-x="554" 
d="M364 736h-34l-52 91l-52 -91h-33l71 112h29zM140 247l-83 -247h-35l234 688h44l232 -688h-36l-83 247h-273zM277 654l-126 -375h252z" />
    <glyph glyph-name="Atilde" unicode="&#xc3;" horiz-adv-x="554" 
d="M372 820v-7q0 -20 -11.5 -31.5t-30.5 -11.5q-24 0 -60 13q-27 10 -43 10q-20 0 -20 -23h-23v7q0 20 11.5 31.5t30.5 11.5q24 0 60 -13q26 -10 43 -10q20 0 20 23h23zM140 247l-83 -247h-35l234 688h44l232 -688h-36l-83 247h-273zM277 654l-126 -375h252z" />
    <glyph glyph-name="Adieresis" unicode="&#xc4;" horiz-adv-x="554" 
d="M218 821q11 0 19 -8t8 -19t-8 -19t-19 -8t-19 8t-8 19t8 19t19 8zM338 821q11 0 19 -8t8 -19t-8 -19t-19 -8t-19 8t-8 19t8 19t19 8zM140 247l-83 -247h-35l234 688h44l232 -688h-36l-83 247h-273zM277 654l-126 -375h252z" />
    <glyph glyph-name="Aring" unicode="&#xc5;" horiz-adv-x="554" 
d="M278 867q27 0 46 -18.5t19 -45.5t-19 -45.5t-46 -18.5t-46 18.5t-19 45.5t19 45.5t46 18.5zM278 843q-16 0 -26.5 -10.5t-10.5 -29.5t10.5 -29.5t26.5 -10.5t26.5 10.5t10.5 29.5t-10.5 29.5t-26.5 10.5zM140 247l-83 -247h-35l234 688h44l232 -688h-36l-83 247h-273z
M277 654l-126 -375h252z" />
    <glyph glyph-name="AE" unicode="&#xc6;" horiz-adv-x="829" 
d="M790 32v-32h-308l-29 247h-257l-127 -247h-37l354 684h360v-32h-307l34 -289h261v-32h-257l36 -299h277zM449 279l-44 376l-193 -376h237z" />
    <glyph glyph-name="Ccedilla" unicode="&#xc7;" horiz-adv-x="595" 
d="M556 656l-4 -33q-74 43 -166 43q-119 0 -204 -89.5t-85 -229.5q0 -156 81.5 -240.5t199.5 -84.5q87 0 166 43l3 -33q-71 -39 -163 -42l-14 -23q31 -4 46.5 -20t15.5 -40q0 -33 -24.5 -50.5t-61.5 -17.5q-27 0 -53 13l5 24q25 -12 51 -12q22 0 35.5 11.5t13.5 28.5
q0 22 -16 31.5t-57 9.5l27 45q-124 6 -207.5 99t-83.5 250q0 158 94.5 258.5t229.5 100.5q111 0 171 -42z" />
    <glyph glyph-name="Egrave" unicode="&#xc8;" horiz-adv-x="442" 
d="M182 855l85 -117l-31 2l-98 118zM392 652h-270v-289h238v-32h-238v-299h274v-32h-308v684h304v-32z" />
    <glyph glyph-name="Eacute" unicode="&#xc9;" horiz-adv-x="442" 
d="M250 739l-31 -2l85 117l44 3zM122 652v-289h238v-32h-238v-299h274v-32h-308v684h304v-32h-270z" />
    <glyph glyph-name="Ecircumflex" unicode="&#xca;" horiz-adv-x="442" 
d="M326 736h-34l-52 91l-52 -91h-33l71 112h29zM122 652v-289h238v-32h-238v-299h274v-32h-308v684h304v-32h-270z" />
    <glyph glyph-name="Edieresis" unicode="&#xcb;" horiz-adv-x="442" 
d="M180 821q11 0 19 -8t8 -19t-8 -19t-19 -8t-19 8t-8 19t8 19t19 8zM300 821q11 0 19 -8t8 -19t-8 -19t-19 -8t-19 8t-8 19t8 19t19 8zM392 652h-270v-289h238v-32h-238v-299h274v-32h-308v684h304v-32z" />
    <glyph glyph-name="Igrave" unicode="&#xcc;" horiz-adv-x="206" 
d="M47 855l85 -117l-31 2l-98 118zM88 0v688h34v-688h-34z" />
    <glyph glyph-name="Iacute" unicode="&#xcd;" horiz-adv-x="206" 
d="M115 739l-31 -2l85 117l44 3zM88 0v688h34v-688h-34z" />
    <glyph glyph-name="Icircumflex" unicode="&#xce;" horiz-adv-x="206" 
d="M191 736h-34l-52 91l-52 -91h-33l71 112h29zM88 0v688h34v-688h-34z" />
    <glyph glyph-name="Idieresis" unicode="&#xcf;" horiz-adv-x="206" 
d="M45 821q11 0 19 -8t8 -19t-8 -19t-19 -8t-19 8t-8 19t8 19t19 8zM165 821q11 0 19 -8t8 -19t-8 -19t-19 -8t-19 8t-8 19t8 19t19 8zM88 0v688h34v-688h-34z" />
    <glyph glyph-name="Ntilde" unicode="&#xd1;" horiz-adv-x="604" 
d="M397 820v-7q0 -20 -11.5 -31.5t-30.5 -11.5q-24 0 -60 13q-27 10 -43 10q-20 0 -20 -23h-23v7q0 20 11.5 31.5t30.5 11.5q24 0 60 -13q26 -10 43 -10q20 0 20 23h23zM485 0l-297 504q-42 72 -76 141q3 -60 3 -147v-498h-33v688h39l290 -495q45 -78 83 -152q-3 90 -3 157
v490h33v-688h-39z" />
    <glyph glyph-name="Ograve" unicode="&#xd2;" horiz-adv-x="712" 
d="M298 855l85 -117l-31 2l-98 118zM356 698q129 0 212 -98t83 -256t-83 -256t-212 -98t-212 98t-83 256t83 256t212 98zM356 666q-114 0 -186.5 -90t-72.5 -232t72.5 -232t186.5 -90t186.5 90t72.5 232t-72.5 232t-186.5 90z" />
    <glyph glyph-name="Oacute" unicode="&#xd3;" horiz-adv-x="712" 
d="M366 739l-31 -2l85 117l44 3zM356 698q129 0 212 -98t83 -256t-83 -256t-212 -98t-212 98t-83 256t83 256t212 98zM356 666q-114 0 -186.5 -90t-72.5 -232t72.5 -232t186.5 -90t186.5 90t72.5 232t-72.5 232t-186.5 90z" />
    <glyph glyph-name="Ocircumflex" unicode="&#xd4;" horiz-adv-x="712" 
d="M442 736h-34l-52 91l-52 -91h-33l71 112h29zM356 698q129 0 212 -98t83 -256t-83 -256t-212 -98t-212 98t-83 256t83 256t212 98zM356 666q-114 0 -186.5 -90t-72.5 -232t72.5 -232t186.5 -90t186.5 90t72.5 232t-72.5 232t-186.5 90z" />
    <glyph glyph-name="Otilde" unicode="&#xd5;" horiz-adv-x="712" 
d="M450 820v-7q0 -20 -11.5 -31.5t-30.5 -11.5q-24 0 -60 13q-27 10 -43 10q-20 0 -20 -23h-23v7q0 20 11.5 31.5t30.5 11.5q24 0 60 -13q26 -10 43 -10q20 0 20 23h23zM356 698q129 0 212 -98t83 -256t-83 -256t-212 -98t-212 98t-83 256t83 256t212 98zM356 666
q-114 0 -186.5 -90t-72.5 -232t72.5 -232t186.5 -90t186.5 90t72.5 232t-72.5 232t-186.5 90z" />
    <glyph glyph-name="Odieresis" unicode="&#xd6;" horiz-adv-x="712" 
d="M296 821q11 0 19 -8t8 -19t-8 -19t-19 -8t-19 8t-8 19t8 19t19 8zM416 821q11 0 19 -8t8 -19t-8 -19t-19 -8t-19 8t-8 19t8 19t19 8zM356 698q129 0 212 -98t83 -256t-83 -256t-212 -98t-212 98t-83 256t83 256t212 98zM356 666q-114 0 -186.5 -90t-72.5 -232t72.5 -232
t186.5 -90t186.5 90t72.5 232t-72.5 232t-186.5 90z" />
    <glyph glyph-name="Oslash" unicode="&#xd8;" horiz-adv-x="712" 
d="M608 664l-45 -58q88 -99 88 -262q0 -158 -83 -256t-212 -98q-120 0 -201 86l-55 -72l-26 20l59 77q-72 98 -72 243q0 158 83 256t212 98q106 0 184 -69l42 55zM156 131l363 471q-69 64 -163 64q-114 0 -186.5 -90t-72.5 -232q0 -125 59 -213zM541 577l-364 -473
q71 -82 179 -82q114 0 186.5 90t72.5 232q0 143 -74 233z" />
    <glyph glyph-name="Ugrave" unicode="&#xd9;" horiz-adv-x="614" 
d="M250 865l85 -117l-31 2l-98 118zM538 688v-455q0 -118 -60.5 -182.5t-171.5 -64.5q-107 0 -167.5 64.5t-60.5 172.5v465h34v-453q0 -106 51 -161.5t149 -55.5q86 0 139 51t53 156v463h34z" />
    <glyph glyph-name="Uacute" unicode="&#xda;" horiz-adv-x="614" 
d="M318 749l-31 -2l85 117l44 3zM538 688v-455q0 -118 -60.5 -182.5t-171.5 -64.5q-107 0 -167.5 64.5t-60.5 172.5v465h34v-453q0 -106 51 -161.5t149 -55.5q86 0 139 51t53 156v463h34z" />
    <glyph glyph-name="Ucircumflex" unicode="&#xdb;" horiz-adv-x="614" 
d="M394 746h-34l-52 91l-52 -91h-33l71 112h29zM538 688v-455q0 -118 -60.5 -182.5t-171.5 -64.5q-107 0 -167.5 64.5t-60.5 172.5v465h34v-453q0 -106 51 -161.5t149 -55.5q86 0 139 51t53 156v463h34z" />
    <glyph glyph-name="Udieresis" unicode="&#xdc;" horiz-adv-x="614" 
d="M248 831q11 0 19 -8t8 -19t-8 -19t-19 -8t-19 8t-8 19t8 19t19 8zM368 831q11 0 19 -8t8 -19t-8 -19t-19 -8t-19 8t-8 19t8 19t19 8zM538 688v-455q0 -118 -60.5 -182.5t-171.5 -64.5q-107 0 -167.5 64.5t-60.5 172.5v465h34v-453q0 -106 51 -161.5t149 -55.5
q86 0 139 51t53 156v463h34z" />
    <glyph glyph-name="Yacute" unicode="&#xdd;" horiz-adv-x="462" 
d="M252 759l-31 -2l85 117l44 3zM259 0h-34v307l-207 381h41l184 -347l183 347h40l-207 -381v-307z" />
    <glyph glyph-name="germandbls" unicode="&#xdf;" horiz-adv-x="535" 
d="M174 8l3 33q48 -18 104 -18q69 0 115 45.5t46 109.5q0 81 -59 127t-170 46v29q94 0 157.5 49.5t63.5 127.5q0 69 -40 113.5t-111 44.5q-62 0 -107.5 -47.5t-45.5 -116.5v-551h-34v441h-59v29h59v71q0 94 54.5 149t131.5 55q87 0 137.5 -52.5t50.5 -128.5
q0 -73 -46.5 -123.5t-121.5 -67.5q84 -17 130 -66t46 -122q0 -85 -56.5 -139t-145.5 -54q-61 0 -102 16z" />
    <glyph glyph-name="agrave" unicode="&#xe0;" horiz-adv-x="449" 
d="M174 653l85 -117l-31 2l-98 118zM99 417l-2 33q55 34 127 34q65 0 105 -36.5t40 -103.5v-344h-29l-4 95q-20 -52 -61 -78.5t-89 -26.5q-52 0 -89.5 35.5t-37.5 94.5q0 78 59 120t143 42q42 0 74 -7v63q0 59 -32.5 87t-88.5 28q-55 0 -115 -36zM335 195v50q-35 6 -77 6
q-72 0 -117.5 -36.5t-45.5 -88.5q0 -48 29.5 -76.5t74.5 -28.5q54 0 95 46.5t41 127.5z" />
    <glyph glyph-name="aacute" unicode="&#xe1;" horiz-adv-x="449" 
d="M242 537l-31 -2l85 117l44 3zM99 417l-2 33q55 34 127 34q65 0 105 -36.5t40 -103.5v-344h-29l-4 95q-20 -52 -61 -78.5t-89 -26.5q-52 0 -89.5 35.5t-37.5 94.5q0 78 59 120t143 42q42 0 74 -7v63q0 59 -32.5 87t-88.5 28q-55 0 -115 -36zM335 195v50q-35 6 -77 6
q-72 0 -117.5 -36.5t-45.5 -88.5q0 -48 29.5 -76.5t74.5 -28.5q54 0 95 46.5t41 127.5z" />
    <glyph glyph-name="acircumflex" unicode="&#xe2;" horiz-adv-x="449" 
d="M318 534h-34l-52 91l-52 -91h-33l71 112h29zM99 417l-2 33q55 34 127 34q65 0 105 -36.5t40 -103.5v-344h-29l-4 95q-20 -52 -61 -78.5t-89 -26.5q-52 0 -89.5 35.5t-37.5 94.5q0 78 59 120t143 42q42 0 74 -7v63q0 59 -32.5 87t-88.5 28q-55 0 -115 -36zM335 195v50
q-35 6 -77 6q-72 0 -117.5 -36.5t-45.5 -88.5q0 -48 29.5 -76.5t74.5 -28.5q54 0 95 46.5t41 127.5z" />
    <glyph glyph-name="atilde" unicode="&#xe3;" horiz-adv-x="449" 
d="M326 618v-7q0 -20 -11.5 -31.5t-30.5 -11.5q-24 0 -60 13q-27 10 -43 10q-20 0 -20 -23h-23v7q0 20 11.5 31.5t30.5 11.5q24 0 60 -13q26 -10 43 -10q20 0 20 23h23zM99 417l-2 33q55 34 127 34q65 0 105 -36.5t40 -103.5v-344h-29l-4 95q-20 -52 -61 -78.5t-89 -26.5
q-52 0 -89.5 35.5t-37.5 94.5q0 78 59 120t143 42q42 0 74 -7v63q0 59 -32.5 87t-88.5 28q-55 0 -115 -36zM335 195v50q-35 6 -77 6q-72 0 -117.5 -36.5t-45.5 -88.5q0 -48 29.5 -76.5t74.5 -28.5q54 0 95 46.5t41 127.5z" />
    <glyph glyph-name="adieresis" unicode="&#xe4;" horiz-adv-x="449" 
d="M172 619q11 0 19 -8t8 -19t-8 -19t-19 -8t-19 8t-8 19t8 19t19 8zM292 619q11 0 19 -8t8 -19t-8 -19t-19 -8t-19 8t-8 19t8 19t19 8zM99 417l-2 33q55 34 127 34q65 0 105 -36.5t40 -103.5v-344h-29l-4 95q-20 -52 -61 -78.5t-89 -26.5q-52 0 -89.5 35.5t-37.5 94.5
q0 78 59 120t143 42q42 0 74 -7v63q0 59 -32.5 87t-88.5 28q-55 0 -115 -36zM335 195v50q-35 6 -77 6q-72 0 -117.5 -36.5t-45.5 -88.5q0 -48 29.5 -76.5t74.5 -28.5q54 0 95 46.5t41 127.5z" />
    <glyph glyph-name="aring" unicode="&#xe5;" horiz-adv-x="449" 
d="M232 665q27 0 46 -18.5t19 -45.5t-19 -45.5t-46 -18.5t-46 18.5t-19 45.5t19 45.5t46 18.5zM232 641q-16 0 -26.5 -10.5t-10.5 -29.5t10.5 -29.5t26.5 -10.5t26.5 10.5t10.5 29.5t-10.5 29.5t-26.5 10.5zM99 417l-2 33q55 34 127 34q65 0 105 -36.5t40 -103.5v-344h-29
l-4 95q-20 -52 -61 -78.5t-89 -26.5q-52 0 -89.5 35.5t-37.5 94.5q0 78 59 120t143 42q42 0 74 -7v63q0 59 -32.5 87t-88.5 28q-55 0 -115 -36zM335 195v50q-35 6 -77 6q-72 0 -117.5 -36.5t-45.5 -88.5q0 -48 29.5 -76.5t74.5 -28.5q54 0 95 46.5t41 127.5z" />
    <glyph glyph-name="ae" unicode="&#xe6;" horiz-adv-x="743" 
d="M103 417l-2 33q55 34 129 34q55 0 95.5 -30t53.5 -83q23 54 62 83.5t87 29.5q56 0 93.5 -32t53 -78.5t15.5 -103.5q0 -22 -3 -40h-300q0 -102 41.5 -155.5t116.5 -53.5q61 0 118 33l2 -32q-52 -32 -134 -32q-58 0 -101.5 34.5t-63.5 100.5q-17 -62 -69.5 -98.5
t-107.5 -36.5q-54 0 -92 35.5t-38 94.5q0 73 59.5 111t144.5 38q58 0 89 -5v54q0 66 -37.5 100.5t-94.5 34.5t-117 -36zM388 260h268q0 95 -34 143.5t-95 48.5q-57 0 -95.5 -52t-43.5 -140zM352 198v35q-31 5 -92 5q-73 0 -119 -32t-46 -80t28.5 -76.5t72.5 -28.5
q55 0 105.5 49.5t50.5 127.5z" />
    <glyph glyph-name="ccedilla" unicode="&#xe7;" horiz-adv-x="412" 
d="M381 462l-4 -33q-48 24 -99 24q-79 0 -134 -55.5t-55 -158.5q0 -112 52 -165t134 -53q52 0 100 23l2 -32q-44 -21 -101 -22l-14 -23q31 -4 46.5 -20t15.5 -40q0 -33 -24.5 -50.5t-61.5 -17.5q-27 0 -53 13l5 24q25 -12 51 -12q22 0 35.5 11.5t13.5 28.5q0 22 -16 31.5
t-57 9.5l27 46q-81 6 -136 67.5t-55 174.5q0 121 63 186t159 65q60 0 106 -22z" />
    <glyph glyph-name="egrave" unicode="&#xe8;" horiz-adv-x="451" 
d="M172 653l85 -117l-31 2l-98 118zM368 54l2 -32q-52 -32 -138 -32q-82 0 -133 62t-51 174q0 115 53.5 186.5t131.5 71.5q82 0 123.5 -62.5t41.5 -151.5q0 -22 -3 -40h-311q0 -102 42 -155.5t120 -53.5q65 0 122 33zM85 260h279q0 95 -35.5 143.5t-96.5 48.5
q-58 0 -100 -52.5t-47 -139.5z" />
    <glyph glyph-name="eacute" unicode="&#xe9;" horiz-adv-x="451" 
d="M240 537l-31 -2l85 117l44 3zM368 54l2 -32q-52 -32 -138 -32q-82 0 -133 62t-51 174q0 115 53.5 186.5t131.5 71.5q82 0 123.5 -62.5t41.5 -151.5q0 -22 -3 -40h-311q0 -102 42 -155.5t120 -53.5q65 0 122 33zM85 260h279q0 95 -35.5 143.5t-96.5 48.5q-58 0 -100 -52.5
t-47 -139.5z" />
    <glyph glyph-name="ecircumflex" unicode="&#xea;" horiz-adv-x="451" 
d="M316 534h-34l-52 91l-52 -91h-33l71 112h29zM368 54l2 -32q-52 -32 -138 -32q-82 0 -133 62t-51 174q0 115 53.5 186.5t131.5 71.5q82 0 123.5 -62.5t41.5 -151.5q0 -22 -3 -40h-311q0 -102 42 -155.5t120 -53.5q65 0 122 33zM85 260h279q0 95 -35.5 143.5t-96.5 48.5
q-58 0 -100 -52.5t-47 -139.5z" />
    <glyph glyph-name="edieresis" unicode="&#xeb;" horiz-adv-x="451" 
d="M170 619q11 0 19 -8t8 -19t-8 -19t-19 -8t-19 8t-8 19t8 19t19 8zM290 619q11 0 19 -8t8 -19t-8 -19t-19 -8t-19 8t-8 19t8 19t19 8zM368 54l2 -32q-52 -32 -138 -32q-82 0 -133 62t-51 174q0 115 53.5 186.5t131.5 71.5q82 0 123.5 -62.5t41.5 -151.5q0 -22 -3 -40h-311
q0 -102 42 -155.5t120 -53.5q65 0 122 33zM85 260h279q0 95 -35.5 143.5t-96.5 48.5q-58 0 -100 -52.5t-47 -139.5z" />
    <glyph glyph-name="igrave" unicode="&#xec;" horiz-adv-x="194" 
d="M39 653l85 -117l-31 2l-98 118zM80 0v474h34v-474h-34z" />
    <glyph glyph-name="iacute" unicode="&#xed;" horiz-adv-x="194" 
d="M107 537l-31 -2l85 117l44 3zM80 0v474h34v-474h-34z" />
    <glyph glyph-name="icircumflex" unicode="&#xee;" horiz-adv-x="194" 
d="M183 534h-34l-52 91l-52 -91h-33l71 112h29zM80 0v474h34v-474h-34z" />
    <glyph glyph-name="idieresis" unicode="&#xef;" horiz-adv-x="194" 
d="M37 619q11 0 19 -8t8 -19t-8 -19t-19 -8t-19 8t-8 19t8 19t19 8zM157 619q11 0 19 -8t8 -19t-8 -19t-19 -8t-19 8t-8 19t8 19t19 8zM80 0v474h34v-474h-34z" />
    <glyph glyph-name="ntilde" unicode="&#xf1;" horiz-adv-x="499" 
d="M343 618v-7q0 -20 -11.5 -31.5t-30.5 -11.5q-24 0 -60 13q-27 10 -43 10q-20 0 -20 -23h-23v7q0 20 11.5 31.5t30.5 11.5q24 0 60 -13q26 -10 43 -10q20 0 20 23h23zM113 474l5 -102q15 48 55.5 80t91.5 32q73 0 113.5 -46t40.5 -118v-320h-34v306q0 68 -32.5 107
t-91.5 39q-60 0 -101.5 -54t-41.5 -116v-282h-34v474h29z" />
    <glyph glyph-name="ograve" unicode="&#xf2;" horiz-adv-x="494" 
d="M189 653l85 -117l-31 2l-98 118zM247 484q91 0 144 -70t53 -177t-53 -177t-144 -70t-144 70t-53 177t53 177t144 70zM247 453q-70 0 -115.5 -57.5t-45.5 -158.5t45.5 -158.5t115.5 -57.5t115.5 57.5t45.5 158.5t-45.5 158.5t-115.5 57.5z" />
    <glyph glyph-name="oacute" unicode="&#xf3;" horiz-adv-x="494" 
d="M257 537l-31 -2l85 117l44 3zM247 484q91 0 144 -70t53 -177t-53 -177t-144 -70t-144 70t-53 177t53 177t144 70zM247 453q-70 0 -115.5 -57.5t-45.5 -158.5t45.5 -158.5t115.5 -57.5t115.5 57.5t45.5 158.5t-45.5 158.5t-115.5 57.5z" />
    <glyph glyph-name="ocircumflex" unicode="&#xf4;" horiz-adv-x="494" 
d="M333 534h-34l-52 91l-52 -91h-33l71 112h29zM247 484q91 0 144 -70t53 -177t-53 -177t-144 -70t-144 70t-53 177t53 177t144 70zM247 453q-70 0 -115.5 -57.5t-45.5 -158.5t45.5 -158.5t115.5 -57.5t115.5 57.5t45.5 158.5t-45.5 158.5t-115.5 57.5z" />
    <glyph glyph-name="otilde" unicode="&#xf5;" horiz-adv-x="494" 
d="M341 618v-7q0 -20 -11.5 -31.5t-30.5 -11.5q-24 0 -60 13q-27 10 -43 10q-20 0 -20 -23h-23v7q0 20 11.5 31.5t30.5 11.5q24 0 60 -13q26 -10 43 -10q20 0 20 23h23zM247 484q91 0 144 -70t53 -177t-53 -177t-144 -70t-144 70t-53 177t53 177t144 70zM247 453
q-70 0 -115.5 -57.5t-45.5 -158.5t45.5 -158.5t115.5 -57.5t115.5 57.5t45.5 158.5t-45.5 158.5t-115.5 57.5z" />
    <glyph glyph-name="odieresis" unicode="&#xf6;" horiz-adv-x="494" 
d="M187 619q11 0 19 -8t8 -19t-8 -19t-19 -8t-19 8t-8 19t8 19t19 8zM307 619q11 0 19 -8t8 -19t-8 -19t-19 -8t-19 8t-8 19t8 19t19 8zM247 484q91 0 144 -70t53 -177t-53 -177t-144 -70t-144 70t-53 177t53 177t144 70zM247 453q-70 0 -115.5 -57.5t-45.5 -158.5
t45.5 -158.5t115.5 -57.5t115.5 57.5t45.5 158.5t-45.5 158.5t-115.5 57.5z" />
    <glyph glyph-name="oslash" unicode="&#xf8;" horiz-adv-x="490" 
d="M446 474l-50 -66q48 -68 48 -171q0 -107 -53 -177t-144 -70q-79 0 -130 54l-49 -63l-24 19l53 69q-47 67 -47 168q0 107 53 177t144 70q78 0 128 -52l47 61zM119 97l236 308q-44 48 -108 48q-70 0 -115.5 -57.5t-45.5 -158.5q0 -83 33 -140zM373 379l-236 -308
q44 -50 110 -50q70 0 115.5 57.5t45.5 158.5q0 86 -35 142z" />
    <glyph glyph-name="ugrave" unicode="&#xf9;" horiz-adv-x="499" 
d="M192 653l85 -117l-31 2l-98 118zM415 0h-29l-5 102q-15 -48 -55.5 -80t-91.5 -32q-73 0 -113.5 46t-40.5 118v320h34v-306q0 -68 32.5 -107t91.5 -39q60 0 101.5 54t41.5 116v282h34v-474z" />
    <glyph glyph-name="uacute" unicode="&#xfa;" horiz-adv-x="499" 
d="M260 537l-31 -2l85 117l44 3zM415 0h-29l-5 102q-15 -48 -55.5 -80t-91.5 -32q-73 0 -113.5 46t-40.5 118v320h34v-306q0 -68 32.5 -107t91.5 -39q60 0 101.5 54t41.5 116v282h34v-474z" />
    <glyph glyph-name="ucircumflex" unicode="&#xfb;" horiz-adv-x="499" 
d="M336 534h-34l-52 91l-52 -91h-33l71 112h29zM415 0h-29l-5 102q-15 -48 -55.5 -80t-91.5 -32q-73 0 -113.5 46t-40.5 118v320h34v-306q0 -68 32.5 -107t91.5 -39q60 0 101.5 54t41.5 116v282h34v-474z" />
    <glyph glyph-name="udieresis" unicode="&#xfc;" horiz-adv-x="499" 
d="M190 619q11 0 19 -8t8 -19t-8 -19t-19 -8t-19 8t-8 19t8 19t19 8zM310 619q11 0 19 -8t8 -19t-8 -19t-19 -8t-19 8t-8 19t8 19t19 8zM415 0h-29l-5 102q-15 -48 -55.5 -80t-91.5 -32q-73 0 -113.5 46t-40.5 118v320h34v-306q0 -68 32.5 -107t91.5 -39q60 0 101.5 54
t41.5 116v282h34v-474z" />
    <glyph glyph-name="yacute" unicode="&#xfd;" horiz-adv-x="418" 
d="M221 537l-31 -2l85 117l44 3zM408 474l-179 -474q-35 -88 -77 -138.5t-104 -76.5l-14 29q56 22 98.5 74.5t58.5 112.5l-176 473h41l155 -439l159 439h38z" />
    <glyph glyph-name="ydieresis" unicode="&#xff;" horiz-adv-x="418" 
d="M151 619q11 0 19 -8t8 -19t-8 -19t-19 -8t-19 8t-8 19t8 19t19 8zM271 619q11 0 19 -8t8 -19t-8 -19t-19 -8t-19 8t-8 19t8 19t19 8zM408 474l-179 -474q-35 -88 -77 -138.5t-104 -76.5l-14 29q56 22 98.5 74.5t58.5 112.5l-176 473h41l155 -439l159 439h38z" />
    <glyph glyph-name="Abreve" unicode="&#x102;" horiz-adv-x="554" 
d="M182 845h27q3 -40 21.5 -61.5t47.5 -21.5t47.5 21.5t21.5 61.5h27q-3 -49 -27.5 -79t-68.5 -30q-45 0 -69 29.5t-27 79.5zM140 247l-83 -247h-35l234 688h44l232 -688h-36l-83 247h-273zM277 654l-126 -375h252z" />
    <glyph glyph-name="abreve" unicode="&#x103;" horiz-adv-x="449" 
d="M136 643h27q3 -40 21.5 -61.5t47.5 -21.5t47.5 21.5t21.5 61.5h27q-3 -49 -27.5 -79t-68.5 -30q-45 0 -69 29.5t-27 79.5zM99 417l-2 33q55 34 127 34q65 0 105 -36.5t40 -103.5v-344h-29l-4 95q-20 -52 -61 -78.5t-89 -26.5q-52 0 -89.5 35.5t-37.5 94.5q0 78 59 120
t143 42q42 0 74 -7v63q0 59 -32.5 87t-88.5 28q-55 0 -115 -36zM335 195v50q-35 6 -77 6q-72 0 -117.5 -36.5t-45.5 -88.5q0 -48 29.5 -76.5t74.5 -28.5q54 0 95 46.5t41 127.5z" />
    <glyph glyph-name="Gbreve" unicode="&#x11e;" horiz-adv-x="614" 
d="M259 845h27q3 -40 21.5 -61.5t47.5 -21.5t47.5 21.5t21.5 61.5h27q-3 -49 -27.5 -79t-68.5 -30q-45 0 -69 29.5t-27 79.5zM552 311v-286q-78 -35 -173 -35q-145 0 -231.5 93.5t-86.5 255.5q0 161 94.5 260t228.5 99q115 0 172 -40l-4 -35q-69 43 -165 43
q-118 0 -204 -88.5t-86 -230.5q0 -89 25 -154.5t68 -101.5t92 -52.5t106 -16.5q75 0 130 23v234h-147v32h181z" />
    <glyph glyph-name="gbreve" unicode="&#x11f;" horiz-adv-x="523" 
d="M158 643h27q3 -40 21.5 -61.5t47.5 -21.5t47.5 21.5t21.5 61.5h27q-3 -49 -27.5 -79t-68.5 -30q-45 0 -69 29.5t-27 79.5zM438 474v-447q0 -111 -56 -176.5t-156 -65.5q-87 0 -136 39l4 34q65 -43 138 -43q80 0 126 56t46 151v82q-18 -48 -61.5 -81t-98.5 -33
q-88 0 -139.5 68t-51.5 174q0 117 60 184.5t142 67.5q49 0 92 -30.5t59 -83.5l4 104h28zM405 179v113q-4 68 -47.5 114.5t-99.5 46.5q-66 0 -117.5 -55.5t-51.5 -161.5q0 -89 40.5 -152t122.5 -63q58 0 102.5 48t50.5 110z" />
    <glyph glyph-name="Idotaccent" unicode="&#x130;" horiz-adv-x="210" 
d="M105 821q11 0 19 -8t8 -19t-8 -19t-19 -8t-19 8t-8 19t8 19t19 8zM88 0v688h34v-688h-34z" />
    <glyph glyph-name="dotlessi" unicode="&#x131;" horiz-adv-x="194" 
d="M114 0h-34v474h34v-474z" />
    <glyph glyph-name="IJ" unicode="&#x132;" horiz-adv-x="444" 
d="M88 0v688h34v-688h-34zM364 688v-543q0 -151 -40 -233.5t-149 -125.5l-13 28q96 41 132 111t36 218v545h34z" />
    <glyph glyph-name="ij" unicode="&#x133;" horiz-adv-x="419" 
d="M101 629q11 0 19 -8t8 -19t-8 -19t-19 -8t-19 8t-8 19t8 19t19 8zM318 629q11 0 19 -8t8 -19t-8 -19t-19 -8t-19 8t-8 19t8 19t19 8zM84 474h34v-474h-34v474zM335 474v-332q0 -140 -41 -220t-128 -137l-19 27q80 50 117 123t37 198v341h34z" />
    <glyph glyph-name="OE" unicode="&#x152;" horiz-adv-x="969" 
d="M923 32v-32h-308v181q-33 -90 -100.5 -140.5t-160.5 -50.5q-129 0 -211 98t-82 256t82 256t211 98q93 0 160.5 -50.5t100.5 -140.5v177h304v-32h-270v-289h238v-32h-238v-299h274zM356 22q114 0 186.5 90t72.5 232t-72.5 232t-186.5 90t-186.5 -90t-72.5 -232t72.5 -232
t186.5 -90z" />
    <glyph glyph-name="oe" unicode="&#x153;" horiz-adv-x="811" 
d="M728 54l2 -32q-52 -32 -138 -32q-60 0 -104 37t-63 104q-21 -65 -66.5 -103t-111.5 -38q-91 0 -144 70t-53 177t53 177t144 70q67 0 113 -38.5t66 -105.5q21 66 65.5 105t101.5 39q82 0 123.5 -62.5t41.5 -151.5q0 -22 -3 -40h-311q0 -102 42 -155.5t120 -53.5
q65 0 122 33zM247 21q70 0 115.5 57t45.5 159q0 101 -45.5 158.5t-115.5 57.5t-115.5 -57.5t-45.5 -158.5t45.5 -158.5t115.5 -57.5zM445 260h279q0 95 -35.5 143.5t-96.5 48.5q-58 0 -100 -52.5t-47 -139.5z" />
    <glyph glyph-name="Scedilla" unicode="&#x15e;" horiz-adv-x="455" 
d="M378 666l-6 -34q-49 34 -120 34q-64 0 -107 -41.5t-43 -106.5q0 -60 31.5 -97.5t102.5 -64.5q78 -30 117 -71t39 -108q0 -65 -42 -115t-112 -66l-17 -29q31 -4 46.5 -20t15.5 -40q0 -33 -24.5 -50.5t-61.5 -17.5q-27 0 -53 13l5 24q25 -12 51 -12q22 0 35.5 11.5
t13.5 28.5q0 22 -16 31.5t-57 9.5l27 46l-21 -1q-73 0 -137 32l6 33q66 -33 134 -33q73 0 121 43t48 108q0 55 -32 91t-104 62q-152 55 -152 185q0 85 54 136t133 51q75 0 125 -32z" />
    <glyph glyph-name="scedilla" unicode="&#x15f;" horiz-adv-x="351" 
d="M292 459l-3 -35q-42 29 -96 29q-42 0 -72 -27.5t-30 -68.5q0 -42 23 -64.5t77 -44.5q55 -23 83 -52.5t28 -71.5q0 -49 -30 -83t-78 -46l-17 -28q31 -4 46.5 -20t15.5 -40q0 -33 -24.5 -50.5t-61.5 -17.5q-27 0 -53 13l5 24q25 -12 51 -12q22 0 35.5 11.5t13.5 28.5
q0 22 -16 31.5t-57 9.5l27 45h-11q-68 0 -110 26l3 34q52 -29 108 -29q49 0 83 27.5t34 68.5q0 37 -23.5 59.5t-78.5 45.5q-53 22 -80.5 51t-27.5 79q0 60 40.5 96t100.5 36q58 0 95 -25z" />
    <glyph glyph-name="Wcircumflex" unicode="&#x174;" horiz-adv-x="796" 
d="M488 736h-34l-52 91l-52 -91h-33l71 112h29zM55 688l129 -488q18 -69 41 -168q3 15 37 168l117 478h46l115 -478q26 -108 39 -168q5 21 43 168l127 488h35l-184 -688h-43l-116 478q-26 108 -39 168q-4 -18 -40 -168l-115 -478h-43l-184 688h35z" />
    <glyph glyph-name="wcircumflex" unicode="&#x175;" horiz-adv-x="650" 
d="M414 534h-34l-52 91l-52 -91h-33l71 112h29zM442 0l-115 423l-116 -423h-43l-138 474h37l123 -444l120 440h37l118 -440l123 444h37l-139 -474h-44z" />
    <glyph glyph-name="Ycircumflex" unicode="&#x176;" horiz-adv-x="462" 
d="M328 756h-34l-52 91l-52 -91h-33l71 112h29zM259 0h-34v307l-207 381h41l184 -347l183 347h40l-207 -381v-307z" />
    <glyph glyph-name="ycircumflex" unicode="&#x177;" horiz-adv-x="418" 
d="M297 534h-34l-52 91l-52 -91h-33l71 112h29zM408 474l-179 -474q-35 -88 -77 -138.5t-104 -76.5l-14 29q56 22 98.5 74.5t58.5 112.5l-176 473h41l155 -439l159 439h38z" />
    <glyph glyph-name="Ydieresis" unicode="&#x178;" horiz-adv-x="462" 
d="M182 841q11 0 19 -8t8 -19t-8 -19t-19 -8t-19 8t-8 19t8 19t19 8zM302 841q11 0 19 -8t8 -19t-8 -19t-19 -8t-19 8t-8 19t8 19t19 8zM259 0h-34v307l-207 381h41l184 -347l183 347h40l-207 -381v-307z" />
    <glyph glyph-name="circumflex" unicode="&#x2c6;" horiz-adv-x="500" 
d="M336 534h-34l-52 91l-52 -91h-33l71 112h29z" />
    <glyph glyph-name="breve" unicode="&#x2d8;" horiz-adv-x="500" 
d="M154 643h27q3 -40 21.5 -61.5t47.5 -21.5t47.5 21.5t21.5 61.5h27q-3 -49 -27.5 -79t-68.5 -30q-45 0 -69 29.5t-27 79.5z" />
    <glyph glyph-name="ring" unicode="&#x2da;" horiz-adv-x="500" 
d="M250 665q27 0 46 -18.5t19 -45.5t-19 -45.5t-46 -18.5t-46 18.5t-19 45.5t19 45.5t46 18.5zM250 641q-16 0 -26.5 -10.5t-10.5 -29.5t10.5 -29.5t26.5 -10.5t26.5 10.5t10.5 29.5t-10.5 29.5t-26.5 10.5z" />
    <glyph glyph-name="tilde" unicode="&#x2dc;" horiz-adv-x="500" 
d="M344 618v-7q0 -20 -11.5 -31.5t-30.5 -11.5q-24 0 -60 13q-27 10 -43 10q-20 0 -20 -23h-23v7q0 20 11.5 31.5t30.5 11.5q24 0 60 -13q26 -10 43 -10q20 0 20 23h23z" />
    <glyph glyph-name="Wgrave" unicode="&#x1e80;" horiz-adv-x="796" 
d="M344 855l85 -117l-31 2l-98 118zM55 688l129 -488q18 -69 41 -168q3 15 37 168l117 478h46l115 -478q26 -108 39 -168q5 21 43 168l127 488h35l-184 -688h-43l-116 478q-26 108 -39 168q-4 -18 -40 -168l-115 -478h-43l-184 688h35z" />
    <glyph glyph-name="wgrave" unicode="&#x1e81;" horiz-adv-x="650" 
d="M270 653l85 -117l-31 2l-98 118zM442 0l-115 423l-116 -423h-43l-138 474h37l123 -444l120 440h37l118 -440l123 444h37l-139 -474h-44z" />
    <glyph glyph-name="Wacute" unicode="&#x1e82;" horiz-adv-x="796" 
d="M412 739l-31 -2l85 117l44 3zM55 688l129 -488q18 -69 41 -168q3 15 37 168l117 478h46l115 -478q26 -108 39 -168q5 21 43 168l127 488h35l-184 -688h-43l-116 478q-26 108 -39 168q-4 -18 -40 -168l-115 -478h-43l-184 688h35z" />
    <glyph glyph-name="wacute" unicode="&#x1e83;" horiz-adv-x="650" 
d="M338 537l-31 -2l85 117l44 3zM442 0l-115 423l-116 -423h-43l-138 474h37l123 -444l120 440h37l118 -440l123 444h37l-139 -474h-44z" />
    <glyph glyph-name="Wdieresis" unicode="&#x1e84;" horiz-adv-x="796" 
d="M342 821q11 0 19 -8t8 -19t-8 -19t-19 -8t-19 8t-8 19t8 19t19 8zM462 821q11 0 19 -8t8 -19t-8 -19t-19 -8t-19 8t-8 19t8 19t19 8zM55 688l129 -488q18 -69 41 -168q3 15 37 168l117 478h46l115 -478q26 -108 39 -168q5 21 43 168l127 488h35l-184 -688h-43l-116 478
q-26 108 -39 168q-4 -18 -40 -168l-115 -478h-43l-184 688h35z" />
    <glyph glyph-name="wdieresis" unicode="&#x1e85;" horiz-adv-x="650" 
d="M268 619q11 0 19 -8t8 -19t-8 -19t-19 -8t-19 8t-8 19t8 19t19 8zM388 619q11 0 19 -8t8 -19t-8 -19t-19 -8t-19 8t-8 19t8 19t19 8zM442 0l-115 423l-116 -423h-43l-138 474h37l123 -444l120 440h37l118 -440l123 444h37l-139 -474h-44z" />
    <glyph glyph-name="Ygrave" unicode="&#x1ef2;" horiz-adv-x="462" 
d="M184 875l85 -117l-31 2l-98 118zM259 0h-34v307l-207 381h41l184 -347l183 347h40l-207 -381v-307z" />
    <glyph glyph-name="ygrave" unicode="&#x1ef3;" horiz-adv-x="418" 
d="M153 653l85 -117l-31 2l-98 118zM408 474l-179 -474q-35 -88 -77 -138.5t-104 -76.5l-14 29q56 22 98.5 74.5t58.5 112.5l-176 473h41l155 -439l159 439h38z" />
    <glyph glyph-name="endash" unicode="&#x2013;" horiz-adv-x="500" 
d="M444 256h-388v28h388v-28z" />
    <glyph glyph-name="emdash" unicode="&#x2014;" horiz-adv-x="1000" 
d="M944 256h-888v28h888v-28z" />
    <glyph glyph-name="quoteleft" unicode="&#x2018;" horiz-adv-x="205" 
d="M77 465l-40 -2l118 267l27 5z" />
    <glyph glyph-name="quoteright" unicode="&#x2019;" horiz-adv-x="214" 
d="M64 468l-27 -5l105 270l40 2z" />
    <glyph glyph-name="quotedblleft" unicode="&#x201c;" horiz-adv-x="305" 
d="M77 465l-40 -2l118 267l27 5zM177 465l-40 -2l118 267l27 5z" />
    <glyph glyph-name="quotedblright" unicode="&#x201d;" horiz-adv-x="304" 
d="M64 468l-27 -5l105 270l40 2zM154 468l-27 -5l105 270l40 2z" />
    <glyph glyph-name="quotedblbase" unicode="&#x201e;" horiz-adv-x="293" 
d="M2 -142l-29 -5l95 250l41 2zM102 -142l-29 -5l95 250l41 2z" />
    <glyph glyph-name="ellipsis" unicode="&#x2026;" horiz-adv-x="513" 
d="M88 60q14 0 23.5 -10t9.5 -23t-9.5 -23t-23.5 -10t-23.5 10t-9.5 23t9.5 23t23.5 10zM248 60q14 0 23.5 -10t9.5 -23t-9.5 -23t-23.5 -10t-23.5 10t-9.5 23t9.5 23t23.5 10zM408 60q14 0 23.5 -10t9.5 -23t-9.5 -23t-23.5 -10t-23.5 10t-9.5 23t9.5 23t23.5 10z" />
    <glyph glyph-name="guilsinglleft" unicode="&#x2039;" horiz-adv-x="320" 
d="M115 252l119 -169h-40l-119 169l119 169h40z" />
    <glyph glyph-name="guilsinglright" unicode="&#x203a;" horiz-adv-x="320" 
d="M245 252l-119 -169h-40l119 169l-119 169h40z" />
    <glyph glyph-name="Euro" unicode="&#x20ac;" 
d="M71 392h22q12 131 71 205.5t157 74.5q74 0 111 -28l-4 -35q-41 31 -108 31q-85 0 -134 -68t-59 -180h208l-5 -28h-206q-3 -34 -1 -88h195l-4 -28h-189q24 -226 187 -226q66 0 111 33l5 -33q-49 -32 -125 -32q-89 0 -144.5 68t-65.5 190h-39l4 28h32q-2 51 1 88h-24z" />
    </font>
</defs>
</svg>
